Coordinates
version=1
nRows=9
nColumns=24
inDegrees=yes

Units are S.I. units (second, meters, Newtons, ...)
Angles are in degrees.

endheader
time	pelvis_tilt	pelvis_list	pelvis_rotation	pelvis_tx	pelvis_ty	pelvis_tz	hip_flexion_r	hip_adduction_r	hip_rotation_r	knee_angle_r	ankle_angle_r	subtalar_angle_r	mtp_angle_r	hip_flexion_l	hip_adduction_l	hip_rotation_l	knee_angle_l	ankle_angle_l	subtalar_angle_l	mtp_angle_l	lumbar_extension	lumbar_bending	lumbar_rotation
      0.87050000	      3.33017434	     -5.41178858	      9.43632310	     -0.51643426	      1.03211240	      0.33203600	      6.34345479	     11.10183321	     -4.13088561	    -13.92844034	      2.69840209	    -15.52093468	      3.45880156	     10.39187889	     -8.33780798	      0.77477313	    -67.89501867	     -7.82068458	     -3.88709587	      0.38690165	     -4.37952285	      3.24500616	     -4.02020748
      0.87466667	      3.32915364	     -5.27182962	      9.45931269	     -0.51160208	      1.03284518	      0.33217532	      5.87899138	     11.02112593	     -4.08643999	    -13.63994668	      2.80118897	    -15.49394639	      3.46117882	     10.99860387	     -8.17277758	      0.76806248	    -67.91095419	     -6.83909978	     -4.11522632	      0.38416446	     -4.45368719	      3.08603302	     -3.95419715
      0.87883333	      3.31619363	     -5.11601122	      9.46455659	     -0.50676150	      1.03356400	      0.33231010	      5.42656845	     10.91831842	     -4.04893594	    -13.35943933	      2.88807905	    -15.44147530	      3.46287029	     11.59149502	     -7.97731860	      0.74694495	    -67.85106299	     -5.96350655	     -4.44474506	      0.38695593	     -4.50450569	      2.89862732	     -3.90388284
      0.88300000	      3.28880533	     -4.96149895	      9.44717355	     -0.50196526	      1.03422629	      0.33249300	      5.00246099	     10.81612130	     -3.99193586	    -13.10639633	      2.99830520	    -15.36094997	      3.46514425	     12.19175057	     -7.78634273	      0.70417863	    -67.75381262	     -5.04849373	     -4.61924438	      0.36087948	     -4.58632004	      2.69815042	     -3.78312066
      0.88716667	      3.27861303	     -4.80271852	      9.42714460	     -0.49713062	      1.03492798	      0.33265019	      4.54064031	     10.71115838	     -3.93584462	    -12.81521885	      3.09135306	    -15.29041024	      3.46639035	     12.74724182	     -7.58620158	      0.65561943	    -67.57523886	     -4.25730659	     -4.92945924	      0.34739631	     -4.62411688	      2.50999851	     -3.71350685
      0.89133333	      3.30325941	     -4.63529847	      9.38177664	     -0.49233478	      1.03565495	      0.33285435	      4.04560131	     10.60520944	     -3.84459239	    -12.53885547	      3.20931451	    -15.19313684	      3.46594599	     13.24567416	     -7.39062268	      0.57654822	    -67.34388394	     -3.45472909	     -5.11243169	      0.27798245	     -4.76418414	      2.30246218	     -3.53189968
      0.89550000	      3.28896792	     -4.47275322	      9.33657131	     -0.48751660	      1.03631651	      0.33302543	      3.58891775	     10.49412133	     -3.77176037	    -12.25063982	      3.29022331	    -15.12144364	      3.46564152	     13.77276843	     -7.18164718	      0.50454275	    -67.05406992	     -2.76305296	     -5.43358522	      0.25578997	     -4.80257636	      2.11400076	     -3.46831745
      0.89966667	      3.33078715	     -4.28271508	      9.25615928	     -0.48272782	      1.03705406	      0.33326534	      3.06622539	     10.36697449	     -3.63927867	    -11.96571604	      3.41295168	    -15.02233868	      3.45930393	     14.20397863	     -6.96108928	      0.39346606	    -66.68930263	     -2.09047170	     -5.65496274	      0.13213337	     -4.96157790	      1.87781582	     -3.22591627
      0.90383333	      3.36306895	     -4.10172342	      9.17067340	     -0.47794583	      1.03775860	      0.33347658	      2.55896428	     10.24201252	     -3.52708168	    -11.68338434	      3.49341070	    -14.93655455	      3.44210803	     14.63227513	     -6.74217853	      0.28266495	    -66.27151752	     -1.46928741	     -5.94340448	     -0.06876106	     -5.09029250	      1.68505410	     -3.03566948
